<?xml version="1.0" encoding="utf-8"?>
<!-- Generator: Adobe Illustrator 26.0.1, SVG Export Plug-In . SVG Version: 6.00 Build 0)  -->
<svg version="1.1" id="レイヤー_1" xmlns="http://www.w3.org/2000/svg" xmlns:xlink="http://www.w3.org/1999/xlink" x="0px"
	 y="0px" viewBox="0 0 1440 914.7" style="enable-background:new 0 0 1440 914.7;" xml:space="preserve">
<style type="text/css">
	.st0{fill:none;}
	.st1{clip-path:url(#SVGID_00000088819228823239674630000001324609107151019907_);fill:#F7F7F7;}
	.st2{fill:#D4DCD5;}
	.st3{opacity:0.26;fill:url(#新規パターンスウォッチ_1);enable-background:new    ;}
</style>
<pattern  y="1104.7" width="57.9" height="34.8" patternUnits="userSpaceOnUse" id="新規パターンスウォッチ_1" viewBox="0 -34.8 57.9 34.8" style="overflow:visible;">
	<g>
		<rect x="0" y="-34.8" class="st0" width="57.9" height="34.8"/>
		<g>
			<defs>
				<rect id="SVGID_1_" x="0" y="-34.8" width="57.9" height="34.8"/>
			</defs>
			<clipPath id="SVGID_00000174573312884776278140000000212419087540329872_">
				<use xlink:href="#SVGID_1_"  style="overflow:visible;"/>
			</clipPath>
			<path style="clip-path:url(#SVGID_00000174573312884776278140000000212419087540329872_);fill:#F7F7F7;" d="M4.9-32.9
				c-1,0-1.9-0.9-1.9-1.9h3.8C6.8-33.8,5.9-32.9,4.9-32.9z"/>
			<path style="clip-path:url(#SVGID_00000174573312884776278140000000212419087540329872_);fill:#F7F7F7;" d="M16.6-32.9
				c-1,0-1.9-0.9-1.9-1.9h3.8C18.5-33.8,17.6-32.9,16.6-32.9z"/>
			<path style="clip-path:url(#SVGID_00000174573312884776278140000000212419087540329872_);fill:#F7F7F7;" d="M28-32.9
				c-1,0-1.9-0.8-1.9-1.9h3.8C29.9-33.8,29.1-32.9,28-32.9z"/>
			<path style="clip-path:url(#SVGID_00000174573312884776278140000000212419087540329872_);fill:#F7F7F7;" d="M1-29.1
				c0,0.7-0.4,1.4-1,1.7v-3.3C0.6-30.4,1-29.8,1-29.1z"/>
			<path style="clip-path:url(#SVGID_00000174573312884776278140000000212419087540329872_);fill:#F7F7F7;" d="M12.6-29.1
				c0,1-0.8,1.9-1.9,1.9c-1,0-1.9-0.8-1.9-1.9c0-1,0.8-1.9,1.9-1.9C11.7-30.9,12.6-30.1,12.6-29.1z"/>
			<path style="clip-path:url(#SVGID_00000174573312884776278140000000212419087540329872_);fill:#F7F7F7;" d="M24.1-29.1
				c0,1-0.8,1.9-1.9,1.9c-1,0-1.9-0.8-1.9-1.9c0-1,0.8-1.9,1.9-1.9C23.3-30.9,24.1-30.1,24.1-29.1z"/>
			<path style="clip-path:url(#SVGID_00000174573312884776278140000000212419087540329872_);fill:#F7F7F7;" d="M1-17.4
				c0,0.7-0.4,1.3-1,1.7v-3.3C0.6-18.8,1-18.1,1-17.4z"/>
			<path style="clip-path:url(#SVGID_00000174573312884776278140000000212419087540329872_);fill:#F7F7F7;" d="M4.9-1.9
				c1,0,1.9,0.8,1.9,1.9l0,0H3l0,0C3-1.1,3.9-1.9,4.9-1.9z"/>
			<path style="clip-path:url(#SVGID_00000174573312884776278140000000212419087540329872_);fill:#F7F7F7;" d="M16.6-1.9
				c1,0,1.9,0.8,1.9,1.9l0,0h-3.8l0,0C14.7-1.1,15.5-1.9,16.6-1.9z"/>
			<path style="clip-path:url(#SVGID_00000174573312884776278140000000212419087540329872_);fill:#F7F7F7;" d="M28-1.9
				c1,0,1.9,0.8,1.9,1.9l0,0h-3.8l0,0C26.2-1.1,27-1.9,28-1.9z"/>
			<path style="clip-path:url(#SVGID_00000174573312884776278140000000212419087540329872_);fill:#F7F7F7;" d="M1-5.8
				c0,0.7-0.4,1.4-1,1.7v-3.3C0.6-7.2,1-6.5,1-5.8z"/>
			<path style="clip-path:url(#SVGID_00000174573312884776278140000000212419087540329872_);fill:#F7F7F7;" d="M12.6-5.8
				c0,1-0.8,1.9-1.9,1.9c-1,0-1.9-0.8-1.9-1.9c0-1,0.8-1.9,1.9-1.9C11.7-7.7,12.6-6.8,12.6-5.8z"/>
			<path style="clip-path:url(#SVGID_00000174573312884776278140000000212419087540329872_);fill:#F7F7F7;" d="M24.1-5.8
				c0,1-0.8,1.9-1.9,1.9c-1,0-1.9-0.8-1.9-1.9c0-1,0.8-1.9,1.9-1.9C23.3-7.7,24.1-6.8,24.1-5.8z"/>
			<path style="clip-path:url(#SVGID_00000174573312884776278140000000212419087540329872_);fill:#F7F7F7;" d="M39.7-32.9
				c-1,0-1.9-0.8-1.9-1.9h3.8C41.5-33.8,40.7-32.9,39.7-32.9z"/>
			<path style="clip-path:url(#SVGID_00000174573312884776278140000000212419087540329872_);fill:#F7F7F7;" d="M51.2-32.9
				c-1,0-1.9-0.8-1.9-1.9h3.8C53.1-33.8,52.3-32.9,51.2-32.9z"/>
			<path style="clip-path:url(#SVGID_00000174573312884776278140000000212419087540329872_);fill:#F7F7F7;" d="M35.8-29.1
				c0,1-0.8,1.9-1.9,1.9c-1,0-1.9-0.8-1.9-1.9c0-1,0.8-1.9,1.9-1.9C34.9-30.9,35.8-30.1,35.8-29.1z"/>
			<path style="clip-path:url(#SVGID_00000174573312884776278140000000212419087540329872_);fill:#F7F7F7;" d="M47.3-29.1
				c0,1-0.8,1.9-1.9,1.9c-1,0-1.9-0.8-1.9-1.9c0-1,0.8-1.9,1.9-1.9C46.5-30.9,47.3-30.1,47.3-29.1z"/>
			<path style="clip-path:url(#SVGID_00000174573312884776278140000000212419087540329872_);fill:#F7F7F7;" d="M55.1-29.1
				c0-1,0.8-1.9,1.9-1.9c0.3,0,0.6,0.1,0.9,0.2v3.3c-0.3,0.1-0.6,0.2-0.9,0.2C56-27.2,55.1-28,55.1-29.1z"/>
			<path style="clip-path:url(#SVGID_00000174573312884776278140000000212419087540329872_);fill:#F7F7F7;" d="M12.6-17.4
				c0,1-0.8,1.9-1.9,1.9c-1,0-1.9-0.8-1.9-1.9c0-1,0.8-1.9,1.9-1.9C11.8-19.3,12.6-18.5,12.6-17.4z"/>
			<path style="clip-path:url(#SVGID_00000174573312884776278140000000212419087540329872_);fill:#F7F7F7;" d="M24.2-17.4
				c0,1-0.8,1.9-1.9,1.9c-1,0-1.9-0.8-1.9-1.9c0-1,0.8-1.9,1.9-1.9C23.3-19.3,24.2-18.5,24.2-17.4z"/>
			<path style="clip-path:url(#SVGID_00000174573312884776278140000000212419087540329872_);fill:#F7F7F7;" d="M35.7-17.4
				c0,1-0.8,1.9-1.9,1.9c-1,0-1.9-0.8-1.9-1.9c0-1,0.8-1.9,1.9-1.9C34.9-19.3,35.7-18.5,35.7-17.4z"/>
			<path style="clip-path:url(#SVGID_00000174573312884776278140000000212419087540329872_);fill:#F7F7F7;" d="M47.4-17.4
				c0,1-0.8,1.9-1.9,1.9c-1,0-1.9-0.8-1.9-1.9c0-1,0.8-1.9,1.9-1.9C46.6-19.3,47.4-18.5,47.4-17.4z"/>
			<path style="clip-path:url(#SVGID_00000174573312884776278140000000212419087540329872_);fill:#F7F7F7;" d="M55.1-17.4
				c0-1,0.8-1.9,1.9-1.9c0.3,0,0.6,0.1,0.9,0.2v3.3c-0.3,0.1-0.6,0.2-0.9,0.2C55.9-15.5,55.1-16.4,55.1-17.4z"/>
			<path style="clip-path:url(#SVGID_00000174573312884776278140000000212419087540329872_);fill:#F7F7F7;" d="M6.8-23.2
				c0,1-0.8,1.9-1.9,1.9c-1,0-1.9-0.8-1.9-1.9c0-1,0.8-1.9,1.9-1.9S6.8-24.2,6.8-23.2z"/>
			<path style="clip-path:url(#SVGID_00000174573312884776278140000000212419087540329872_);fill:#F7F7F7;" d="M18.4-23.2
				c0,1-0.8,1.9-1.9,1.9c-1,0-1.9-0.8-1.9-1.9c0-1,0.8-1.9,1.9-1.9C17.5-25.1,18.4-24.2,18.4-23.2z"/>
			<path style="clip-path:url(#SVGID_00000174573312884776278140000000212419087540329872_);fill:#F7F7F7;" d="M30-23.2
				c0,1-0.8,1.9-1.9,1.9c-1.1,0-1.9-0.8-1.9-1.9c0-1,0.8-1.9,1.9-1.9C29.1-25.1,30-24.2,30-23.2z"/>
			<path style="clip-path:url(#SVGID_00000174573312884776278140000000212419087540329872_);fill:#F7F7F7;" d="M41.5-23.2
				c0,1-0.8,1.9-1.9,1.9c-1.1,0-1.9-0.8-1.9-1.9c0-1,0.8-1.9,1.9-1.9C40.7-25.1,41.5-24.2,41.5-23.2z"/>
			<path style="clip-path:url(#SVGID_00000174573312884776278140000000212419087540329872_);fill:#F7F7F7;" d="M53.1-23.2
				c0,1-0.8,1.9-1.9,1.9c-1,0-1.9-0.8-1.9-1.9c0-1,0.8-1.9,1.9-1.9C52.2-25.1,53.1-24.2,53.1-23.2z"/>
			<path style="clip-path:url(#SVGID_00000174573312884776278140000000212419087540329872_);fill:#F7F7F7;" d="M6.8-11.7
				c0,1-0.8,1.9-1.9,1.9c-1,0-1.9-0.8-1.9-1.9c0-1,0.8-1.9,1.9-1.9C6-13.5,6.8-12.7,6.8-11.7z"/>
			<path style="clip-path:url(#SVGID_00000174573312884776278140000000212419087540329872_);fill:#F7F7F7;" d="M18.4-11.7
				c0,1-0.8,1.9-1.9,1.9c-1,0-1.9-0.8-1.9-1.9c0-1,0.8-1.9,1.9-1.9C17.5-13.5,18.4-12.7,18.4-11.7z"/>
			<path style="clip-path:url(#SVGID_00000174573312884776278140000000212419087540329872_);fill:#F7F7F7;" d="M30-11.7
				c0,1-0.8,1.9-1.9,1.9c-1.1,0-1.9-0.8-1.9-1.9c0-1,0.8-1.9,1.9-1.9C29.1-13.6,30-12.7,30-11.7z"/>
			<path style="clip-path:url(#SVGID_00000174573312884776278140000000212419087540329872_);fill:#F7F7F7;" d="M41.5-11.7
				c0,1-0.8,1.9-1.9,1.9c-1.1,0-1.9-0.8-1.9-1.9c0-1,0.8-1.9,1.9-1.9C40.7-13.6,41.5-12.7,41.5-11.7z"/>
			<path style="clip-path:url(#SVGID_00000174573312884776278140000000212419087540329872_);fill:#F7F7F7;" d="M53.1-11.7
				c0,1-0.8,1.9-1.9,1.9c-1,0-1.9-0.8-1.9-1.9c0-1,0.8-1.9,1.9-1.9C52.2-13.5,53.1-12.7,53.1-11.7z"/>
			<path style="clip-path:url(#SVGID_00000174573312884776278140000000212419087540329872_);fill:#F7F7F7;" d="M39.7-1.9
				c1,0,1.9,0.8,1.9,1.9l0,0h-3.8l0,0C37.8-1.1,38.6-1.9,39.7-1.9z"/>
			<path style="clip-path:url(#SVGID_00000174573312884776278140000000212419087540329872_);fill:#F7F7F7;" d="M51.2-1.9
				c1,0,1.9,0.8,1.9,1.9l0,0h-3.8l0,0C49.3-1.1,50.2-1.9,51.2-1.9z"/>
			<path style="clip-path:url(#SVGID_00000174573312884776278140000000212419087540329872_);fill:#F7F7F7;" d="M35.8-5.8
				c0,1-0.8,1.9-1.9,1.9c-1,0-1.9-0.8-1.9-1.9c0-1,0.8-1.9,1.9-1.9C34.9-7.7,35.8-6.8,35.8-5.8z"/>
			<path style="clip-path:url(#SVGID_00000174573312884776278140000000212419087540329872_);fill:#F7F7F7;" d="M47.3-5.8
				c0,1-0.8,1.9-1.9,1.9c-1,0-1.9-0.8-1.9-1.9c0-1,0.8-1.9,1.9-1.9C46.5-7.7,47.3-6.8,47.3-5.8z"/>
			<path style="clip-path:url(#SVGID_00000174573312884776278140000000212419087540329872_);fill:#F7F7F7;" d="M55.1-5.8
				c0-1,0.8-1.9,1.9-1.9c0.3,0,0.6,0.1,0.9,0.2v3.3C57.6-4,57.3-3.9,57-3.9C56-3.9,55.1-4.8,55.1-5.8z"/>
		</g>
	</g>
</pattern>
<path class="st2" d="M1440,746l-60,16c-60,16-180,48-300,85.3c-120,37.7-240,79.7-360,64C600,895,480,821,360,788.7
	C240,757,120,767,60,772.7L0,778V32l60-5.3c60-5.7,180-15.7,300,16C480,75,600,149,720,165.3c120,15.7,240-26.3,360-64
	C1200,64,1320,32,1380,16l60-16V746z"/>
<path class="st3" d="M1440,746l-60,16c-60,16-180,48-300,85.3c-120,37.7-240,79.7-360,64C600,895,480,821,360,788.7
	C240,757,120,767,60,772.7L0,778V32l60-5.3c60-5.7,180-15.7,300,16C480,75,600,149,720,165.3c120,15.7,240-26.3,360-64
	C1200,64,1320,32,1380,16l60-16V746z"/>
</svg>
